<svg width="46" height="48" viewBox="0 0 46 48" fill="none" xmlns="http://www.w3.org/2000/svg">
<path d="M19 43C20.8 43 22 41.47 22 39.57V38.43C22 36.54 20.8 35 19 35C17.2 35 16 36.54 16 38.43V39.57C16 41.47 17.2 43 19 43Z" stroke="#404145" stroke-width="1.5" stroke-miterlimit="10"/>
<path d="M8 45C9.8 45 11 43.47 11 41.57V40.43C11 38.54 9.8 37 8 37C6.2 37 5 38.54 5 40.43V41.57C5 43.47 6.2 45 8 45Z" stroke="#404145" stroke-width="1.5" stroke-miterlimit="10"/>
<path d="M25 48V46C25 43.52 21.08 43 19 43C16.92 43 13 43.52 13 46V48" stroke="#404145" stroke-width="1.5" stroke-miterlimit="10" stroke-linejoin="round"/>
<path d="M13 46.19C11.7 45.25 9.42 45 8 45C5.92 45 2 45.52 2 48" stroke="#404145" stroke-width="1.5" stroke-miterlimit="10" stroke-linejoin="round"/>
<path d="M30 45C28.2 45 27 43.47 27 41.57V40.43C27 38.54 28.2 37 30 37C31.8 37 33 38.54 33 40.43V41.57C33 43.47 31.81 45 30 45Z" stroke="#404145" stroke-width="1.5" stroke-miterlimit="10"/>
<path d="M25 46.19C26.3 45.25 28.58 45 30 45C32.08 45 36 45.52 36 48" stroke="#404145" stroke-width="1.5" stroke-miterlimit="10" stroke-linejoin="round"/>
<path d="M26.0192 13.98C26.0192 13.42 25.9492 12.89 25.8292 12.37L27.7892 11.24L25.7892 7.78L23.8292 8.91C23.0392 8.16 22.0692 7.59 20.9992 7.27V5H16.9992V7.28C15.9292 7.6 14.9792 8.17 14.1992 8.92L12.2092 7.77L10.2092 11.23L12.2092 12.39C12.0892 12.9 12.0192 13.43 12.0192 13.98C12.0192 14.54 12.0892 15.08 12.2192 15.61L10.1992 16.77L12.1992 20.23L14.2192 19.06C14.9992 19.79 15.9392 20.35 16.9892 20.67V23H20.9892V20.69C22.0492 20.38 23.0092 19.82 23.7892 19.08L25.7792 20.23L27.7792 16.77L25.7992 15.63C25.9492 15.1 26.0192 14.55 26.0192 13.98Z" fill="#A6EACA" stroke="#404145" stroke-width="1.5" stroke-miterlimit="10" stroke-linejoin="round"/>
<path d="M6 1H31C32.66 1 34 2.34 34 4V23C34 25.21 32.21 27 30 27H14L9.8 32.6C9.22 33.37 8 32.96 8 32V27H6C4.34 27 3 25.66 3 24V4C3 2.34 4.34 1 6 1Z" stroke="#404145" stroke-width="1.5" stroke-miterlimit="10" stroke-linejoin="round"/>
<path d="M22 29C22 30.66 23.34 32 25 32H34L38.24 36.95C38.84 37.65 40 37.23 40 36.3V32H42C43.66 32 45 30.66 45 29V11C45 9.34 43.66 8 42 8H36" stroke="#404145" stroke-width="1.5" stroke-miterlimit="10" stroke-linejoin="round"/>
<path d="M22.0517 13.98C22.0517 15.65 20.7017 17 19.0317 17C17.3617 17 16.0117 15.65 16.0117 13.98C16.0117 12.31 17.3617 10.96 19.0317 10.96C20.6917 10.95 22.0517 12.31 22.0517 13.98Z" fill="white" stroke="#404145" stroke-width="1.5" stroke-miterlimit="10" stroke-linejoin="round"/>
</svg>
