<?xml version="1.0" encoding="UTF-8"?>
<svg id="Layer_1" data-name="Layer 1" xmlns="http://www.w3.org/2000/svg" viewBox="0 0 44.5 47.75">
  <defs>
    <style>
      .cls-1 {
        stroke-miterlimit: 10;
      }

      .cls-1, .cls-2, .cls-3, .cls-4 {
        stroke: #404145;
        stroke-width: 1.5px;
      }

      .cls-1, .cls-4 {
        fill: none;
      }

      .cls-2 {
        fill: #8c52ff;
      }

      .cls-2, .cls-3, .cls-4 {
        stroke-linejoin: round;
      }

      .cls-3 {
        fill: #fff;
      }
    </style>
  </defs>
  <path class="cls-1" d="M17.75,42.75c1.8,0,3-1.53,3-3.43v-1.14c0-1.89-1.2-3.43-3-3.43s-3,1.54-3,3.43v1.14c0,1.9,1.2,3.43,3,3.43Z"/>
  <path class="cls-1" d="M6.75,44.75c1.8,0,3-1.53,3-3.43v-1.14c0-1.89-1.2-3.43-3-3.43s-3,1.54-3,3.43v1.14c0,1.9,1.2,3.43,3,3.43Z"/>
  <path class="cls-4" d="M23.75,47.75v-2c0-2.48-3.92-3-6-3s-6,.52-6,3v2"/>
  <path class="cls-4" d="M11.75,45.94c-1.3-.94-3.58-1.19-5-1.19-2.08,0-6,.52-6,3"/>
  <path class="cls-1" d="M28.75,44.75c-1.8,0-3-1.53-3-3.43v-1.14c0-1.89,1.2-3.43,3-3.43s3,1.54,3,3.43v1.14c0,1.9-1.19,3.43-3,3.43Z"/>
  <path class="cls-4" d="M23.75,45.94c1.3-.94,3.58-1.19,5-1.19,2.08,0,6,.52,6,3"/>
  <path class="cls-2" d="M24.77,13.73c0-.56-.07-1.09-.19-1.61l1.96-1.13-2-3.46-1.96,1.13c-.79-.75-1.76-1.32-2.83-1.64v-2.27h-4v2.28c-1.07,.32-2.02,.89-2.8,1.64l-1.99-1.15-2,3.46,2,1.16c-.12,.51-.19,1.04-.19,1.59s.07,1.1,.2,1.63l-2.02,1.16,2,3.46,2.02-1.17c.78,.73,1.72,1.29,2.77,1.61v2.33h4v-2.31c1.06-.31,2.02-.87,2.8-1.61l1.99,1.15,2-3.46-1.98-1.14c.15-.53,.22-1.08,.22-1.65Z"/>
  <path class="cls-4" d="M4.75,.75H29.75c1.66,0,3,1.34,3,3V22.75c0,2.21-1.79,4-4,4H12.75l-4.2,5.6c-.58,.77-1.8,.36-1.8-.6v-5h-2c-1.66,0-3-1.34-3-3V3.75C1.75,2.09,3.09,.75,4.75,.75Z"/>
  <path class="cls-4" d="M20.75,28.75c0,1.66,1.34,3,3,3h9l4.24,4.95c.6,.7,1.76,.28,1.76-.65v-4.3h2c1.66,0,3-1.34,3-3V10.75c0-1.66-1.34-3-3-3h-6"/>
  <path class="cls-3" d="M20.8,13.73c0,1.67-1.35,3.02-3.02,3.02s-3.02-1.35-3.02-3.02,1.35-3.02,3.02-3.02c1.66-.01,3.02,1.35,3.02,3.02Z"/>
</svg>