<?xml version="1.0" encoding="UTF-8"?>
<svg id="Layer_1" data-name="Layer 1" xmlns="http://www.w3.org/2000/svg" viewBox="0 0 47.5 40.5">
  <defs>
    <style>
      .cls-1 {
        fill: none;
      }

      .cls-1, .cls-2, .cls-3 {
        stroke: #404145;
        stroke-miterlimit: 10;
        stroke-width: 1.5px;
      }

      .cls-4, .cls-2 {
        fill: #fff;
      }

      .cls-3 {
        fill: #8c52ff;
      }
    </style>
  </defs>
  <path class="cls-1" d="M45.75,39.75H1.75c-.55,0-1-.45-1-1V1.75c0-.55,.45-1,1-1H45.75c.55,0,1,.45,1,1V38.75c0,.55-.45,1-1,1Z"/>
  <path class="cls-1" d="M.75,6.75H46.75"/>
  <path class="cls-3" d="M24.75,10.75H4.75V29.75H24.75V10.75Z"/>
  <path class="cls-1" d="M3.75,3.75h2"/>
  <path class="cls-1" d="M7.75,3.75h2"/>
  <path class="cls-1" d="M11.75,3.75h2"/>
  <path class="cls-4" d="M20.75,28.75v-1.44c0-1.44-3.3-3.56-6-3.56s-6,2.11-6,3.56v1.44"/>
  <path class="cls-1" d="M20.75,28.75v-1.44c0-1.44-3.3-3.56-6-3.56s-6,2.11-6,3.56v1.44"/>
  <path class="cls-2" d="M14.75,14.75c-2.07,0-4,1.61-4,3.6v1.8c0,1.99,1.93,3.6,4,3.6s4-1.61,4-3.6v-1.8c0-1.99-1.93-3.6-4-3.6Z"/>
  <path class="cls-1" d="M28.75,10.75h13"/>
  <path class="cls-1" d="M28.75,14.75h13"/>
  <path class="cls-1" d="M28.75,18.75h7"/>
  <path class="cls-1" d="M28.75,25.75h13"/>
  <path class="cls-1" d="M28.75,29.75h13"/>
  <path class="cls-1" d="M28.75,33.75h7"/>
</svg>