<svg width="46" height="47" viewBox="0 0 46 47" fill="none" xmlns="http://www.w3.org/2000/svg">
<path d="M7 10.0098H4C2.34 10.0098 1 11.3498 1 13.0098V35.0098C1 36.6698 2.34 38.0098 4 38.0098H6V44.5997C6 45.4897 7.08 45.9398 7.71 45.3098L14 38.0198H24C25.66 38.0198 27 36.6798 27 35.0198V34.0198" fill="#A6EACA"/>
<path d="M7 10.0098H4C2.34 10.0098 1 11.3498 1 13.0098V35.0098C1 36.6698 2.34 38.0098 4 38.0098H6V44.5997C6 45.4897 7.08 45.9398 7.71 45.3098L14 38.0198H24C25.66 38.0198 27 36.6798 27 35.0198V34.0198" stroke="#404145" stroke-width="1.5" stroke-miterlimit="10"/>
<path d="M12 32.01H31L37.29 39.3C37.92 39.93 39 39.48 39 38.59V32H42C43.66 32 45 30.66 45 29V4C45 2.34 43.66 1 42 1H12C10.34 1 9 2.34 9 4V29C9 30.66 10.34 32.01 12 32.01Z" fill="white" stroke="#404145" stroke-width="1.5" stroke-miterlimit="10"/>
<path d="M21 24.0098C22.94 24.0098 23.27 26.0098 26 26.0098C26.55 26.0098 35 26.0098 35 26.0098C36.25 26.0098 36.75 24.8198 37 24.0098C37.25 23.1998 38 17.0098 38 17.0098C38.31 15.3998 36.86 14.0098 35 14.0098H33" stroke="#404145" stroke-width="1.5" stroke-miterlimit="10"/>
<path d="M25 20.0102C27.87 19.0702 30 17.6702 30 15.1402C30 15.1402 30.83 13.4002 31 12.8702C31.12 12.5002 31.39 11.7602 31.39 10.0302C31.39 8.2802 31.05 7.63015 30.2 6.67015C29.34 5.69015 28 6.08019 28 7.02019V8.02019C28 10.1202 26.45 10.6902 24.86 12.2602C24.86 12.2602 22.82 14.0202 22 14.0202H21" stroke="#404145" stroke-width="1.5" stroke-miterlimit="10"/>
<path d="M21 12.0098H16V26.0098H21V12.0098Z" stroke="#404145" stroke-width="1.5" stroke-miterlimit="10"/>
</svg>
