<?xml version="1.0" encoding="UTF-8"?>
<svg id="Layer_1" data-name="Layer 1" xmlns="http://www.w3.org/2000/svg" viewBox="0 0 45.5 46.1">
  <defs>
    <style>
      .cls-1 {
        fill: none;
      }

      .cls-1, .cls-2 {
        stroke: #404145;
        stroke-miterlimit: 10;
        stroke-width: 1.5px;
      }

      .cls-3 {
        fill: #8c52ff;
      }

      .cls-2 {
        fill: #fff;
      }
    </style>
  </defs>
  <path class="cls-3" d="M6.75,9.76H3.75c-1.66,0-3,1.34-3,3v22c0,1.66,1.34,3,3,3h2v6.59c0,.89,1.08,1.34,1.71,.71l6.29-7.29h10c1.66,0,3-1.34,3-3v-1"/>
  <path class="cls-1" d="M6.75,9.76H3.75c-1.66,0-3,1.34-3,3v22c0,1.66,1.34,3,3,3h2v6.59c0,.89,1.08,1.34,1.71,.71l6.29-7.29h10c1.66,0,3-1.34,3-3v-1"/>
  <path class="cls-2" d="M11.75,31.76H30.75l6.29,7.29c.63,.63,1.71,.18,1.71-.71v-6.59h3c1.66,0,3-1.34,3-3V3.75c0-1.66-1.34-3-3-3H11.75c-1.66,0-3,1.34-3,3V28.75c0,1.66,1.34,3.01,3,3.01Z"/>
  <path class="cls-1" d="M20.75,23.76c1.94,0,2.27,2,5,2h9c1.25,0,1.75-1.19,2-2s1-7,1-7c.31-1.61-1.14-3-3-3h-2"/>
  <path class="cls-1" d="M24.75,19.76c2.87-.94,5-2.34,5-4.87,0,0,.83-1.74,1-2.27,.12-.37,.39-1.11,.39-2.84s-.34-2.4-1.19-3.36c-.86-.98-2.2-.59-2.2,.35v1c0,2.1-1.55,2.67-3.14,4.24,0,0-2.04,1.76-2.86,1.76h-1"/>
  <path class="cls-1" d="M20.75,11.76h-5v14h5V11.76Z"/>
</svg>