<?xml version="1.0" encoding="UTF-8"?>
<svg id="Layer_1" data-name="Layer 1" xmlns="http://www.w3.org/2000/svg" viewBox="0 0 45.49 47.5">
  <defs>
    <style>
      .cls-1, .cls-2, .cls-3, .cls-4 {
        stroke: #404145;
        stroke-width: 1.5px;
      }

      .cls-1, .cls-3 {
        fill: none;
      }

      .cls-1, .cls-4 {
        stroke-miterlimit: 10;
      }

      .cls-2 {
        fill: #8c52ff;
      }

      .cls-2, .cls-3 {
        stroke-linejoin: round;
      }

      .cls-4 {
        fill: #fff;
      }
    </style>
  </defs>
  <path class="cls-1" d="M9.74,31.74c-2.36,0-4-1.92-4-4.29v-1.43c0-2.37,1.64-4.29,4-4.29s4,1.92,4,4.29v1.43c0,2.38-1.64,4.29-4,4.29Z"/>
  <path class="cls-1" d="M.74,46.75s.66-5.56,1-8c.34-2.44,1.8-4,4-4h2l6.98,8h6s.45,4-3,4h-5.98l-5-6"/>
  <path class="cls-3" d="M15.74,39.75l4-6h18l-6,10h-9"/>
  <path class="cls-3" d="M7.74,46.75H39.74"/>
  <path class="cls-2" d="M19.74,.75h22c1.66,0,3,1.34,3,3V19.75c0,2.21-1.79,4-4,4h-13l-4.2,5.6c-.58,.77-1.8,.36-1.8-.6v-5h-2c-1.66,0-3-1.34-3-3V3.75c0-1.66,1.34-3,3-3Z"/>
  <path class="cls-4" d="M30.74,18.75c3-3,7-4,7-8,0-3-3.64-5.36-7-2-3.36-3.36-7-1-7,2,0,4,4,5,7,8Z"/>
</svg>