<svg width="46" height="48" viewBox="0 0 46 48" fill="none" xmlns="http://www.w3.org/2000/svg">
<path d="M10 31.99C7.64 31.99 6 30.07 6 27.7V26.27C6 23.9 7.64 21.98 10 21.98C12.36 21.98 14 23.9 14 26.27V27.7C14 30.08 12.36 31.99 10 31.99Z" stroke="#404145" stroke-width="1.5" stroke-miterlimit="10"/>
<path d="M1 47C1 47 1.66 41.44 2 39C2.34 36.56 3.80002 35 6.00002 35H8.00002L14.98 43H20.98C20.98 43 21.43 47 17.98 47C15.97 47 12 47 12 47L7.00002 41" stroke="#404145" stroke-width="1.5" stroke-miterlimit="10"/>
<path d="M16 40L20 34H38L32 44H23" stroke="#404145" stroke-width="1.5" stroke-miterlimit="10" stroke-linejoin="round"/>
<path d="M8 47H40" stroke="#404145" stroke-width="1.5" stroke-miterlimit="10" stroke-linejoin="round"/>
<path d="M20 1H42C43.66 1 45 2.34 45 4V20C45 22.21 43.21 24 41 24H28L23.8 29.6C23.22 30.37 22 29.96 22 29V24H20C18.34 24 17 22.66 17 21V4C17 2.34 18.34 1 20 1Z" fill="#A6EACA" stroke="#404145" stroke-width="1.5" stroke-miterlimit="10" stroke-linejoin="round"/>
<path d="M31 19.0002C34 16.0002 38 15.0002 38 11.0002C38 8.00024 34.36 5.64024 31 9.00024C27.64 5.64024 24 8.00024 24 11.0002C24 15.0002 28 16.0002 31 19.0002Z" fill="white" stroke="#404145" stroke-width="1.5" stroke-miterlimit="10"/>
</svg>
