<?xml version="1.0" encoding="UTF-8"?>
<svg id="Layer_1" data-name="Layer 1" xmlns="http://www.w3.org/2000/svg" viewBox="0 0 45.5 40.5">
  <defs>
    <style>
      .cls-1 {
        fill: #8c52ff;
      }

      .cls-2, .cls-3 {
        fill: none;
        stroke: #404145;
        stroke-linejoin: round;
        stroke-width: 1.5px;
      }

      .cls-3 {
        stroke-linecap: round;
      }
    </style>
  </defs>
  <path class="cls-2" d="M44.75,.75H.75V39.75H44.75V.75Z"/>
  <path class="cls-2" d="M2.75,6.75H42.75"/>
  <path class="cls-2" d="M3.75,3.75h2"/>
  <path class="cls-2" d="M6.75,3.75h2"/>
  <path class="cls-1" d="M29.69,28.87c.04,.29,.05,.58,.05,.88h9c0-8.84-7.16-16-16-16S6.74,20.91,6.74,29.75H15.74c0-3.87,3.13-7,7-7,1.68,0,3.23,.59,4.43,1.58"/>
  <path class="cls-3" d="M29.69,28.87c.04,.29,.05,.58,.05,.88h9c0-8.84-7.16-16-16-16S6.74,20.91,6.74,29.75H15.74c0-3.87,3.13-7,7-7,1.68,0,3.23,.59,4.43,1.58"/>
  <path class="cls-2" d="M9.75,3.75h2"/>
  <path class="cls-3" d="M22.75,32.75c1.66,0,3-1.34,3-3s-1.34-3-3-3-3,1.34-3,3,1.34,3,3,3Z"/>
  <path class="cls-3" d="M19.25,23.69l-4.5-7.8"/>
  <path class="cls-3" d="M26.25,23.69l4.5-7.8"/>
  <path class="cls-3" d="M25.38,28.31l8.37-4.56"/>
</svg>