<svg width="46" height="46" viewBox="0 0 46 46" fill="none" xmlns="http://www.w3.org/2000/svg">
<path d="M45 3H1V42H45V3Z" stroke="#404145" stroke-width="1.5" stroke-miterlimit="10" stroke-linejoin="round"/>
<path d="M3 9H43" stroke="#404145" stroke-width="1.5" stroke-miterlimit="10" stroke-linejoin="round"/>
<path d="M4 6H6" stroke="#404145" stroke-width="1.5" stroke-miterlimit="10" stroke-linejoin="round"/>
<path d="M7 6H9" stroke="#404145" stroke-width="1.5" stroke-miterlimit="10" stroke-linejoin="round"/>
<path d="M29.9383 31.12C29.9783 31.41 29.9883 31.7 29.9883 32H38.9883C38.9883 23.16 31.8283 16 22.9883 16C14.1483 16 6.98828 23.16 6.98828 32H15.9883C15.9883 28.13 19.1183 25 22.9883 25C24.6683 25 26.2183 25.59 27.4183 26.58" fill="#A6EACA"/>
<path d="M29.9383 31.12C29.9783 31.41 29.9883 31.7 29.9883 32H38.9883C38.9883 23.16 31.8283 16 22.9883 16C14.1483 16 6.98828 23.16 6.98828 32H15.9883C15.9883 28.13 19.1183 25 22.9883 25C24.6683 25 26.2183 25.59 27.4183 26.58" stroke="#404145" stroke-width="1.5" stroke-miterlimit="10" stroke-linecap="round" stroke-linejoin="round"/>
<path d="M10 6H12" stroke="#404145" stroke-width="1.5" stroke-miterlimit="10" stroke-linejoin="round"/>
<path d="M23 35C24.6569 35 26 33.6569 26 32C26 30.3431 24.6569 29 23 29C21.3431 29 20 30.3431 20 32C20 33.6569 21.3431 35 23 35Z" stroke="#404145" stroke-width="1.5" stroke-miterlimit="10" stroke-linecap="round" stroke-linejoin="round"/>
<path d="M19.5 25.9399L15 18.1399" stroke="#404145" stroke-width="1.5" stroke-miterlimit="10" stroke-linecap="round" stroke-linejoin="round"/>
<path d="M26.5 25.9399L31 18.1399" stroke="#404145" stroke-width="1.5" stroke-miterlimit="10" stroke-linecap="round" stroke-linejoin="round"/>
<path d="M25.6289 30.56L33.9989 26" stroke="#404145" stroke-width="1.5" stroke-miterlimit="10" stroke-linecap="round" stroke-linejoin="round"/>
</svg>
