<?xml version="1.0" encoding="UTF-8"?>
<svg id="Layer_1" data-name="Layer 1" xmlns="http://www.w3.org/2000/svg" viewBox="0 0 44.68 44.26">
  <defs>
    <style>
      .cls-1 {
        fill: none;
      }

      .cls-1, .cls-2 {
        stroke: #404145;
        stroke-miterlimit: 10;
        stroke-width: 1.5px;
      }

      .cls-2 {
        fill: #8c52ff;
      }
    </style>
  </defs>
  <path class="cls-1" d="M23.18,39.35H1.93c-.65,0-1.17-.51-1.18-1.16,0,0,0,0,0-.01V1.93C.75,1.28,1.28,.75,1.93,.75h31.92c.65,0,1.17,.52,1.17,1.17,0,0,0,0,0,.01v14.48"/>
  <circle class="cls-1" cx="17.07" cy="7.92" r="2.59"/>
  <polyline class="cls-1" points="8.51 20.91 14.6 14.82 17.22 17.44 22.76 11.9 27.26 16.41"/>
  <path class="cls-2" d="M43.1,43.51H26.94c-.43,0-.78-.35-.78-.78,0-.02,0-.03,0-.05l.82-14.44c.03-.41,.37-.74,.79-.74h14.55c.41,0,.75,.33,.78,.74l.83,14.44c.02,.44-.31,.81-.75,.83-.03,0-.05,0-.08,0Z"/>
  <line class="cls-1" x1="6.35" y1="25.29" x2="24.11" y2="25.29"/>
  <line class="cls-1" x1="6.35" y1="32.48" x2="24.11" y2="32.48"/>
  <path class="cls-1" d="M29.87,24.44c-.13-2.85,2.08-5.26,4.93-5.38s5.26,2.08,5.38,4.93c0,.15,0,.3,0,.45"/>
</svg>