<svg id="Layer_1" data-name="Layer 1" xmlns="http://www.w3.org/2000/svg" viewBox="0 0 46 46"><path d="M23.86,40.22H2.61a1.17,1.17,0,0,1-1.18-1.17V2.8A1.18,1.18,0,0,1,2.61,1.62H34.53A1.17,1.17,0,0,1,35.7,2.8V17.28" fill="none" stroke="#404145" stroke-miterlimit="10" stroke-width="1.5"/><circle cx="17.75" cy="8.79" r="2.59" fill="none" stroke="#404145" stroke-miterlimit="10" stroke-width="1.5"/><polyline points="9.19 21.78 15.28 15.69 17.9 18.31 23.44 12.77 27.94 17.28" fill="none" stroke="#404145" stroke-miterlimit="10" stroke-width="1.5"/><path d="M43.78,44.38H27.62a.78.78,0,0,1-.78-.83l.82-14.44a.8.8,0,0,1,.79-.74H43a.79.79,0,0,1,.78.74l.83,14.44A.79.79,0,0,1,43.78,44.38Z" fill="#a6eaca" stroke="#404145" stroke-miterlimit="10" stroke-width="1.5"/><line x1="7.03" y1="26.16" x2="24.79" y2="26.16" fill="none" stroke="#404145" stroke-miterlimit="10" stroke-width="1.5"/><line x1="7.03" y1="33.35" x2="24.79" y2="33.35" fill="none" stroke="#404145" stroke-miterlimit="10" stroke-width="1.5"/><path d="M30.55,25.31a5.16,5.16,0,1,1,10.31,0" fill="none" stroke="#404145" stroke-miterlimit="10" stroke-width="1.5"/></svg>