<?xml version="1.0" encoding="UTF-8"?>
<svg id="Layer_1" data-name="Layer 1" xmlns="http://www.w3.org/2000/svg" viewBox="0 0 45.11 44.16">
  <defs>
    <style>
      .cls-1 {
        stroke-miterlimit: 10;
      }

      .cls-1, .cls-2, .cls-3 {
        stroke: #404145;
        stroke-width: 1.5px;
      }

      .cls-1, .cls-3 {
        fill: none;
      }

      .cls-2 {
        fill: #8c52ff;
      }

      .cls-2, .cls-3 {
        stroke-linejoin: round;
      }
    </style>
  </defs>
  <line class="cls-1" x1="9.49" y1="7.9" x2="35.63" y2="7.9"/>
  <line class="cls-1" x1="9.76" y1="4.17" x2="11.2" y2="4.17"/>
  <line class="cls-1" x1="12.64" y1="4.17" x2="14.09" y2="4.17"/>
  <line class="cls-1" x1="15.53" y1="4.17" x2="16.97" y2="4.17"/>
  <polyline class="cls-3" points="6.96 23.66 6.96 .75 38.16 .75 38.16 24.26"/>
  <path class="cls-1" d="M17.97,30.08v3.66c-.02,1.03,.79,1.89,1.83,1.91,.26,0,.52-.04,.76-.14h0c.73-.28,1.22-.99,1.21-1.77l-.06-5"/>
  <path class="cls-2" d="M17.23,19.26l3.66,9.76-2,.74c-2.7,1.01-5.7-.36-6.7-3.06s.36-5.7,3.06-6.7l1.99-.74Z"/>
  <path class="cls-1" d="M26.91,12.39l5.79,15.46c.21,.55-.07,1.17-.63,1.38-.21,.08-.43,.09-.64,.03l-2.54-.65c-2.65-.69-5.44-.55-8,.41l-3.66-9.76c2.57-.95,4.78-2.68,6.33-4.94l1.49-2.17c.35-.48,1.02-.58,1.5-.23,.16,.12,.29,.28,.36,.47Z"/>
  <path class="cls-1" d="M28.56,16.9l2.41,6.43c1.78-.67,2.68-2.64,2.01-4.42-.67-1.78-2.64-2.68-4.42-2.01h0Z"/>
  <path class="cls-1" d="M40.83,10.08h1.2c.59,0,1.06,.47,1.06,1.06h0v26.71"/>
  <path class="cls-1" d="M2.03,37.85V11.18c-.02-.59,.45-1.08,1.04-1.1,0,0,.01,0,.02,0h1.2"/>
  <path class="cls-1" d="M31.97,37.85l-1.63,2.09H14.78l-1.63-2.09H.75v2.56c0,1.66,1.34,3,3,3H41.36c1.66,0,3-1.34,3-3v-2.56h-12.39Z"/>
  <line class="cls-3" x1="6.96" y1="27.06" x2="6.96" y2="31.05"/>
</svg>