<svg id="Layer_1" data-name="Layer 1" xmlns="http://www.w3.org/2000/svg" viewBox="0 0 46 46"><defs><style>.cls-1,.cls-2{fill:none;}.cls-1,.cls-2,.cls-3{stroke:#404145;stroke-width:1.5px;}.cls-1{stroke-miterlimit:10;}.cls-2,.cls-3{stroke-linejoin:round;}.cls-3{fill:#a6eaca;}</style></defs><line class="cls-1" x1="9.93" y1="8.82" x2="36.07" y2="8.82"/><line class="cls-1" x1="10.2" y1="5.09" x2="11.64" y2="5.09"/><line class="cls-1" x1="13.08" y1="5.09" x2="14.53" y2="5.09"/><line class="cls-1" x1="15.97" y1="5.09" x2="17.41" y2="5.09"/><polyline class="cls-2" points="7.4 24.58 7.4 1.67 38.6 1.67 38.6 25.18"/><path class="cls-1" d="M18.41,31l0,3.66A1.87,1.87,0,0,0,21,36.43h0a1.88,1.88,0,0,0,1.21-1.77l-.06-5"/><path class="cls-3" d="M17.67,20.18l3.66,9.76-2,.74a5.21,5.21,0,1,1-3.65-9.76Z"/><path class="cls-1" d="M27.35,13.31l5.79,15.46a1.07,1.07,0,0,1-1.27,1.41l-2.54-.65a13.25,13.25,0,0,0-8,.41l-3.66-9.76A13.24,13.24,0,0,0,24,15.24l1.49-2.17A1.07,1.07,0,0,1,27.35,13.31Z"/><path class="cls-1" d="M29,17.82l2.41,6.43A3.43,3.43,0,1,0,29,17.82Z"/><path class="cls-1" d="M41.27,11h1.2a1.06,1.06,0,0,1,1.06,1.06V38.77"/><path class="cls-1" d="M2.47,38.77V12.1A1.07,1.07,0,0,1,3.53,11h1.2"/><path class="cls-1" d="M32.41,38.77l-1.63,2.09H15.22l-1.63-2.09H1.19v2.56a3,3,0,0,0,3,3H41.8a3,3,0,0,0,3-3V38.77Z"/><line class="cls-2" x1="7.4" y1="27.98" x2="7.4" y2="31.97"/></svg>