<?xml version="1.0" encoding="UTF-8"?>
<svg id="Layer_1" data-name="Layer 1" xmlns="http://www.w3.org/2000/svg" viewBox="0 0 42.31 44.91">
  <defs>
    <style>
      .cls-1 {
        fill: #8c52ff;
      }

      .cls-1, .cls-2, .cls-3 {
        stroke: #404145;
        stroke-linejoin: round;
        stroke-width: 1.5px;
      }

      .cls-2 {
        fill: #fff;
      }

      .cls-3 {
        fill: none;
      }
    </style>
  </defs>
  <path class="cls-3" d="M40.75,28.75V.75H.75V39.75H22.75"/>
  <path class="cls-3" d="M2.75,6.75H38.75"/>
  <path class="cls-3" d="M3.75,3.75h2"/>
  <path class="cls-3" d="M6.75,3.75h2"/>
  <path class="cls-3" d="M9.75,3.75h2"/>
  <path class="cls-1" d="M26.56,20.32l-1.47-3.54-2.15,.72c-.6-.84-1.32-1.55-2.13-2.13l.72-2.16-3.55-1.46-1.02,2.03c-.98-.16-2-.17-3.01,0l-1.01-2.03-3.54,1.47,.72,2.15c-.84,.6-1.55,1.32-2.13,2.13l-2.16-.72-1.47,3.54,2.03,1.02c-.16,.98-.17,2,0,3.01l-2.03,1.02,1.47,3.54,2.15-.72c.6,.84,1.32,1.55,2.13,2.13l-.72,2.16,3.54,1.47,1.02-2.03c.98,.16,2,.17,3.01,0l1.02,2.03,3.54-1.47-.72-2.15c.84-.6,1.55-1.32,2.13-2.13l2.16,.72,1.47-3.54-2.03-1.02c.16-.98,.17-2,0-3.01l2.03-1.03Z"/>
  <path class="cls-2" d="M15.6,26.64c2.02,0,3.65-1.63,3.65-3.65s-1.63-3.65-3.65-3.65-3.65,1.63-3.65,3.65,1.63,3.65,3.65,3.65Z"/>
  <path class="cls-1" d="M41.56,34.09l-1.08-2.62-1.59,.53c-.44-.62-.98-1.15-1.58-1.57l.53-1.59-2.62-1.08-.75,1.5c-.73-.12-1.48-.13-2.23,0l-.75-1.5-2.62,1.08,.53,1.59c-.62,.44-1.15,.98-1.57,1.58l-1.59-.53-1.08,2.62,1.5,.75c-.12,.73-.13,1.48,0,2.23l-1.5,.75,1.08,2.62,1.59-.53c.44,.62,.98,1.15,1.58,1.57l-.53,1.59,2.62,1.08,.75-1.5c.73,.12,1.48,.13,2.23,0l.75,1.5,2.62-1.08-.53-1.59c.62-.44,1.15-.98,1.57-1.58l1.59,.53,1.08-2.62-1.5-.75c.12-.73,.13-1.48,0-2.23l1.5-.75Z"/>
  <path class="cls-2" d="M36.16,36.06c0,1.49-1.21,2.7-2.7,2.7s-2.7-1.21-2.7-2.7,1.21-2.7,2.7-2.7,2.7,1.21,2.7,2.7Z"/>
</svg>