<?xml version="1.0" encoding="UTF-8"?>
<svg id="Layer_1" data-name="Layer 1" xmlns="http://www.w3.org/2000/svg" viewBox="0 0 47.5 40.88">
  <defs>
    <style>
      .cls-1 {
        fill: none;
      }

      .cls-1, .cls-2 {
        stroke: #404145;
        stroke-linecap: round;
        stroke-miterlimit: 10;
        stroke-width: 1.5px;
      }

      .cls-2 {
        fill: #8c52ff;
      }
    </style>
  </defs>
  <path class="cls-1" d="M26.75,9.88c1.36-2.46,3.99-4.12,7-4.12,4.42,0,8,3.58,8,8,0,1.38-.28,4.64-1,6-2.83-.33-5,1.24-5,4,0,1.96,1.5,3.62,4,4"/>
  <path class="cls-1" d="M21.38,9.75C23.07,4.53,27.97,.75,33.75,.75c7.18,0,13,5.82,13,13"/>
  <path class="cls-1" d="M45.75,33.76c0,2.63-1.48,6-5,6-3.9,0-5.53-3.11-6.81-5.25-.42-.7-1.36-1.69-2.49-2.75"/>
  <path class="cls-2" d="M25.75,32.75H14.75l-6.25,7.04c-.61,.69-1.75,.26-1.75-.66v-6.37H3.75c-1.66,0-3-1.34-3-3V15.76c0-1.66,1.34-3,3-3H25.75c1.66,0,3,1.35,3,3v14c0,1.66-1.34,2.99-3,2.99Z"/>
  <path class="cls-1" d="M7.75,20.75h14"/>
  <path class="cls-1" d="M7.75,24.75H15.75"/>
</svg>