<?xml version="1.0" encoding="UTF-8"?>
<svg id="Layer_1" data-name="Layer 1" xmlns="http://www.w3.org/2000/svg" viewBox="0 0 45.5 45.5">
  <defs>
    <style>
      .cls-1 {
        stroke-miterlimit: 10;
      }

      .cls-1, .cls-2, .cls-3 {
        stroke: #404145;
        stroke-width: 1.5px;
      }

      .cls-1, .cls-3 {
        fill: none;
      }

      .cls-2 {
        fill: #8c52ff;
      }

      .cls-2, .cls-3 {
        stroke-linejoin: round;
      }
    </style>
  </defs>
  <path class="cls-2" d="M22.75,32.75c12.15,0,22-4.48,22-10s-9.85-10-22-10S.75,17.23,.75,22.75s9.85,10,22,10Z"/>
  <path class="cls-1" d="M19.75,23.75l.12-.12c.56-.56,1.08-.88,1.88-.88h2c.55,0,1,.45,1,1v3c0,.55-.45,1-1,1h-3c-.55,0-1-.45-1-1v-8c0-.55,.45-1,1-1h3c.55,0,1,.45,1,1v2"/>
  <path class="cls-1" d="M33.75,25.75c0,1.1-.9,2-2,2h-2c-1.1,0-2-.9-2-2v-6c0-1.1,.9-2,2-2h2c1.1,0,2,.9,2,2v6Z"/>
  <path class="cls-1" d="M12.75,22.75h3"/>
  <path class="cls-1" d="M11.75,25.75v1c0,.55,.45,1,1,1h3c.55,0,1-.45,1-1v-2.59c0-.27-.11-.52-.29-.71l-.71-.7,.71-.71c.19-.19,.29-.44,.29-.71v-2.58c0-.55-.45-1-1-1h-3c-.55,0-1,.45-1,1v1"/>
  <path class="cls-3" d="M22.75,44.75c12.15,0,22-9.85,22-22S34.9,.75,22.75,.75,.75,10.6,.75,22.75s9.85,22,22,22Z"/>
  <path class="cls-3" d="M14.37,10.75C16.15,4.73,19.24,.75,22.75,.75s6.6,3.98,8.38,10"/>
  <path class="cls-3" d="M14.37,34.75c1.78,6.02,4.87,10,8.38,10s6.6-3.98,8.38-10"/>
</svg>